<svg width="340" height="284" viewBox="0 0 340 284" fill="none" xmlns="http://www.w3.org/2000/svg">
<g clip-path="url(#clip0)">
<path d="M140.095 66.7672H138.552V24.4766C138.552 21.2623 137.919 18.0795 136.688 15.1098C135.458 12.1402 133.655 9.44188 131.383 7.16901C129.11 4.89614 126.411 3.0932 123.442 1.86314C120.472 0.633076 117.289 -2.53149e-05 114.075 -1.52587e-05H24.4767C21.2624 -2.53149e-05 18.0795 0.633075 15.1099 1.86314C12.1402 3.0932 9.44192 4.89614 7.16905 7.16901C4.89618 9.44188 3.09323 12.1402 1.86317 15.1098C0.633097 18.0795 -5.02809e-06 21.2623 0 24.4766V256.486C-3.01685e-06 259.7 0.633103 262.883 1.86317 265.853C3.09324 268.822 4.89618 271.521 7.16906 273.794C9.44193 276.066 12.1402 277.869 15.1099 279.099C18.0795 280.329 21.2624 280.963 24.4767 280.963H114.075C117.289 280.963 120.472 280.329 123.442 279.099C126.411 277.869 129.11 276.066 131.383 273.794C133.655 271.521 135.458 268.822 136.688 265.853C137.919 262.883 138.552 259.7 138.552 256.486V96.8703H140.095V66.7672Z" fill="#E6E6E6"/>
<path d="M115.063 6.36798H103.367C103.905 7.68661 104.11 9.11727 103.965 10.5339C103.82 11.9506 103.328 13.3098 102.534 14.4918C101.739 15.6738 100.667 16.6422 99.4097 17.3119C98.1529 17.9816 96.7507 18.3319 95.3266 18.332H43.9969C42.5728 18.3319 41.1706 17.9816 39.9138 17.3119C38.6569 16.6422 37.5841 15.6738 36.7898 14.4918C35.9954 13.3098 35.5039 11.9506 35.3586 10.5339C35.2133 9.11727 35.4186 7.68661 35.9565 6.36798H25.0328C22.6324 6.36798 20.2555 6.84077 18.0378 7.75937C15.8201 8.67796 13.805 10.0244 12.1077 11.7217C10.4103 13.4191 9.06392 15.4341 8.14532 17.6518C7.22671 19.8695 6.75391 22.2464 6.75391 24.6468V256.316C6.75391 258.716 7.22671 261.093 8.14531 263.311C9.06391 265.528 10.4103 267.544 12.1077 269.241C13.805 270.938 15.8201 272.285 18.0378 273.203C20.2555 274.122 22.6324 274.595 25.0328 274.595H115.063C117.463 274.595 119.84 274.122 122.058 273.203C124.275 272.285 126.29 270.938 127.988 269.241C129.685 267.544 131.031 265.528 131.95 263.311C132.869 261.093 133.341 258.716 133.341 256.316V24.6468C133.341 22.2464 132.869 19.8695 131.95 17.6518C131.031 15.4341 129.685 13.4191 127.988 11.7217C126.29 10.0244 124.275 8.67796 122.058 7.75937C119.84 6.84077 117.463 6.36798 115.063 6.36798V6.36798Z" fill="white"/>
<path d="M43.5232 53.4637H38.1478C37.9588 53.4637 37.7775 53.5388 37.6439 53.6725C37.5102 53.8061 37.4352 53.9874 37.4352 54.1764V56.5358C37.4352 56.7249 37.5102 56.9061 37.6439 57.0398C37.7775 57.1734 37.9588 57.2485 38.1478 57.2485H39.0386V60.7837H42.6324V57.2485H43.5232C43.7122 57.2485 43.8935 57.1734 44.0272 57.0398C44.1608 56.9061 44.2359 56.7249 44.2359 56.5358V54.1764C44.2359 53.9874 44.1608 53.8061 44.0272 53.6725C43.8935 53.5388 43.7122 53.4637 43.5232 53.4637V53.4637Z" fill="#E6E6E6"/>
<path d="M48.9073 75.0572C45.6152 70.24 43.9322 64.5045 44.0995 58.6722C44.1025 58.5377 44.0588 58.4062 43.9759 58.3002C43.8929 58.1942 43.7758 58.1201 43.6445 58.0906V57.0711H37.9674V58.0764H37.8892C37.7347 58.0766 37.5866 58.1382 37.4775 58.2476C37.3684 58.357 37.3072 58.5052 37.3074 58.6597C37.3074 58.6739 37.3079 58.688 37.309 58.7021C37.7562 64.9367 36.246 70.5278 32.7782 75.4753C32.5786 75.7596 32.4767 76.101 32.4876 76.4482L33.1084 95.6503C33.1233 96.0786 33.3031 96.4846 33.6102 96.7835C33.9173 97.0824 34.3279 97.2512 34.7565 97.2546H47.5973C48.0307 97.2511 48.4457 97.0785 48.7537 96.7735C49.0617 96.4686 49.2385 96.0554 49.2463 95.622L49.4856 76.9783C49.4926 76.294 49.2909 75.6238 48.9073 75.0572Z" fill="#E6E6E6"/>
<path d="M46.8745 81.4355H35.6976C35.5321 81.4355 35.3687 81.4713 35.2183 81.5404C35.068 81.6095 34.9344 81.7102 34.8267 81.8358C34.7189 81.9614 34.6396 82.1088 34.5942 82.2678C34.5488 82.4269 34.5383 82.594 34.5634 82.7575L36.2524 93.736H45.9509L48.0024 82.7945C48.0335 82.6288 48.0276 82.4582 47.9853 82.295C47.943 82.1318 47.8652 81.9799 47.7576 81.8501C47.6499 81.7204 47.5149 81.616 47.3623 81.5443C47.2097 81.4726 47.0431 81.4355 46.8745 81.4355V81.4355Z" fill="white"/>
<path d="M103.362 110.986H97.9864C97.7974 110.986 97.6161 111.061 97.4825 111.195C97.3488 111.328 97.2737 111.51 97.2737 111.699V114.058C97.2737 114.247 97.3488 114.428 97.4825 114.562C97.6161 114.696 97.7974 114.771 97.9864 114.771H98.8772V118.306H102.471V114.771H103.362C103.551 114.771 103.732 114.696 103.866 114.562C103.999 114.428 104.074 114.247 104.074 114.058V111.699C104.074 111.51 103.999 111.328 103.866 111.195C103.732 111.061 103.551 110.986 103.362 110.986Z" fill="#E6E6E6"/>
<path d="M108.746 132.579C105.454 127.762 103.771 122.027 103.938 116.194C103.941 116.06 103.897 115.928 103.814 115.822C103.732 115.716 103.614 115.642 103.483 115.613V114.593H97.806V115.599H97.7278C97.6513 115.599 97.5755 115.614 97.5049 115.643C97.4343 115.673 97.3701 115.716 97.3161 115.77C97.262 115.824 97.2192 115.888 97.19 115.959C97.1609 116.03 97.1459 116.105 97.146 116.182C97.146 116.196 97.1465 116.21 97.1476 116.224C97.5948 122.459 96.0846 128.05 92.6168 132.998C92.4172 133.282 92.3153 133.623 92.3262 133.97L92.947 153.173C92.9619 153.601 93.1417 154.007 93.4488 154.306C93.7558 154.605 94.1665 154.773 94.5951 154.777H107.436C107.869 154.773 108.284 154.601 108.592 154.296C108.9 153.991 109.077 153.578 109.085 153.144L109.324 134.501C109.331 133.816 109.129 133.146 108.746 132.579V132.579Z" fill="#E6E6E6"/>
<path d="M106.713 138.958H95.5362C95.3707 138.958 95.2072 138.994 95.0569 139.063C94.9066 139.132 94.773 139.232 94.6652 139.358C94.5575 139.484 94.4782 139.631 94.4328 139.79C94.3873 139.949 94.3768 140.116 94.402 140.28L96.091 151.258H105.789L107.841 140.317C107.872 140.151 107.866 139.98 107.824 139.817C107.782 139.654 107.704 139.502 107.596 139.372C107.488 139.243 107.353 139.138 107.201 139.067C107.048 138.995 106.882 138.958 106.713 138.958H106.713Z" fill="white"/>
<path d="M35.9661 192.306H33.4163C33.3266 192.306 33.2407 192.341 33.1773 192.405C33.1139 192.468 33.0782 192.554 33.0782 192.644V193.763C33.0782 193.852 33.1139 193.938 33.1773 194.002C33.2407 194.065 33.3266 194.101 33.4163 194.101H33.8388V195.778H35.5436V194.101H35.9661C36.0558 194.101 36.1417 194.065 36.2051 194.002C36.2685 193.938 36.3042 193.852 36.3042 193.763V192.644C36.3042 192.554 36.2685 192.468 36.2051 192.405C36.1417 192.341 36.0558 192.306 35.9661 192.306Z" fill="#E6E6E6"/>
<path d="M38.52 202.548C36.9584 200.263 36.1601 197.543 36.2394 194.776C36.2409 194.712 36.2201 194.65 36.1808 194.6C36.1415 194.549 36.0859 194.514 36.0236 194.5V194.017H33.3307V194.494H33.2936C33.2573 194.494 33.2214 194.501 33.1879 194.515C33.1544 194.529 33.1239 194.549 33.0983 194.575C33.0727 194.6 33.0524 194.631 33.0385 194.664C33.0247 194.698 33.0176 194.734 33.0176 194.77C33.0176 194.777 33.0179 194.784 33.0184 194.79C33.267 197.613 32.5054 200.433 30.8692 202.747C30.7746 202.882 30.7262 203.043 30.7314 203.208L31.0259 212.317C31.0329 212.52 31.1182 212.712 31.2639 212.854C31.4095 212.996 31.6043 213.076 31.8076 213.078H37.8986C38.1042 213.076 38.301 212.994 38.4471 212.849C38.5933 212.705 38.6771 212.509 38.6808 212.303L38.7943 203.46C38.7977 203.135 38.702 202.817 38.52 202.548V202.548Z" fill="#E6E6E6"/>
<path d="M37.6434 205.896H31.8316V208.802H37.6434V205.896Z" fill="white"/>
<path d="M47.8355 192.306H45.2857C45.196 192.306 45.11 192.341 45.0466 192.405C44.9833 192.468 44.9476 192.554 44.9476 192.644V193.763C44.9476 193.852 44.9833 193.938 45.0466 194.002C45.11 194.065 45.196 194.101 45.2857 194.101H45.7082V195.778H47.4129V194.101H47.8355C47.9251 194.101 48.0111 194.065 48.0745 194.002C48.1379 193.938 48.1735 193.852 48.1735 193.763V192.644C48.1735 192.554 48.1379 192.468 48.0745 192.405C48.0111 192.341 47.9251 192.306 47.8355 192.306Z" fill="#E6E6E6"/>
<path d="M50.3894 202.548C48.8278 200.263 48.0295 197.543 48.1088 194.776C48.1103 194.712 48.0895 194.65 48.0502 194.6C48.0109 194.549 47.9553 194.514 47.893 194.5V194.017H45.2001V194.494H45.163C45.1267 194.494 45.0908 194.501 45.0573 194.515C45.0238 194.529 44.9933 194.549 44.9677 194.575C44.9421 194.6 44.9218 194.631 44.9079 194.664C44.8941 194.698 44.887 194.734 44.887 194.77C44.887 194.777 44.8873 194.784 44.8878 194.79C45.1364 197.613 44.3747 200.433 42.7386 202.747C42.644 202.882 42.5956 203.043 42.6008 203.208L42.8953 212.317C42.9023 212.52 42.9876 212.712 43.1333 212.854C43.2789 212.996 43.4737 213.076 43.677 213.078H49.768C49.9736 213.076 50.1704 212.994 50.3165 212.849C50.4627 212.705 50.5465 212.509 50.5502 212.303L50.6637 203.46C50.6671 203.135 50.5714 202.817 50.3894 202.548Z" fill="#E6E6E6"/>
<path d="M49.5128 205.896H43.701V208.802H49.5128V205.896Z" fill="white"/>
<path d="M59.7048 192.306H57.155C57.0654 192.306 56.9794 192.341 56.916 192.405C56.8526 192.468 56.817 192.554 56.817 192.644V193.763C56.817 193.852 56.8526 193.938 56.916 194.002C56.9794 194.065 57.0654 194.101 57.155 194.101H57.5776V195.778H59.2823V194.101H59.7048C59.7945 194.101 59.8805 194.065 59.9439 194.002C60.0073 193.938 60.0429 193.852 60.0429 193.763V192.644C60.0429 192.554 60.0073 192.468 59.9439 192.405C59.8805 192.341 59.7945 192.306 59.7048 192.306Z" fill="#E6E6E6"/>
<path d="M62.2587 202.548C60.6972 200.263 59.8989 197.543 59.9782 194.776C59.9796 194.712 59.9589 194.65 59.9195 194.6C59.8802 194.549 59.8247 194.514 59.7624 194.5V194.017H57.0695V194.494H57.0323C56.9961 194.494 56.9601 194.501 56.9266 194.515C56.8931 194.529 56.8627 194.549 56.8371 194.575C56.8114 194.6 56.7911 194.631 56.7773 194.664C56.7634 194.698 56.7563 194.734 56.7564 194.77C56.7564 194.777 56.7566 194.784 56.7572 194.79C57.0057 197.613 56.2441 200.433 54.608 202.747C54.5133 202.882 54.465 203.043 54.4702 203.208L54.7646 212.317C54.7717 212.52 54.857 212.712 55.0026 212.854C55.1483 212.996 55.3431 213.076 55.5464 213.078H61.6374C61.843 213.076 62.0398 212.994 62.1859 212.849C62.332 212.705 62.4159 212.509 62.4196 212.303L62.5331 203.46C62.5364 203.135 62.4407 202.817 62.2587 202.548Z" fill="#E6E6E6"/>
<path d="M61.3821 205.896H55.5703V208.802H61.3821V205.896Z" fill="white"/>
<path d="M94.0235 170.052H88.6481C88.5545 170.052 88.4618 170.071 88.3754 170.107C88.2889 170.143 88.2103 170.195 88.1442 170.261C88.078 170.327 88.0255 170.406 87.9897 170.492C87.9539 170.579 87.9354 170.672 87.9354 170.765V173.125C87.9354 173.314 88.0105 173.495 88.1442 173.629C88.2778 173.762 88.4591 173.837 88.6481 173.837H89.5389V177.372H93.1327V173.837H94.0235C94.2125 173.837 94.3938 173.762 94.5274 173.629C94.6611 173.495 94.7362 173.314 94.7362 173.125V170.765C94.7362 170.672 94.7177 170.579 94.6819 170.492C94.6461 170.406 94.5936 170.327 94.5274 170.261C94.4613 170.195 94.3827 170.143 94.2962 170.107C94.2098 170.071 94.1171 170.052 94.0235 170.052V170.052Z" fill="#E6E6E6"/>
<path d="M99.4075 191.646C96.1155 186.829 94.4325 181.093 94.5997 175.261C94.6027 175.126 94.559 174.995 94.4761 174.889C94.3932 174.783 94.2761 174.709 94.1448 174.679V173.66H88.4677V174.665H88.3894C88.3129 174.665 88.2372 174.68 88.1666 174.71C88.0959 174.739 88.0318 174.782 87.9777 174.836C87.9237 174.89 87.8809 174.955 87.8517 175.025C87.8225 175.096 87.8076 175.172 87.8077 175.248C87.8077 175.263 87.8082 175.277 87.8093 175.291C88.2565 181.525 86.7463 187.116 83.2785 192.064C83.0789 192.348 82.977 192.69 82.9879 193.037L83.6087 212.239C83.6236 212.667 83.8034 213.073 84.1104 213.372C84.4175 213.671 84.8282 213.84 85.2567 213.843H98.0976C98.531 213.84 98.9459 213.667 99.2539 213.362C99.562 213.057 99.7387 212.644 99.7466 212.211L99.9858 193.567C99.9929 192.883 99.7912 192.213 99.4075 191.646Z" fill="#E6E6E6"/>
<path d="M97.3748 198.024H86.1979C86.0324 198.024 85.8689 198.06 85.7186 198.129C85.5683 198.198 85.4347 198.299 85.3269 198.425C85.2192 198.55 85.1399 198.697 85.0945 198.857C85.049 199.016 85.0385 199.183 85.0637 199.346L86.7527 210.325H96.4512L98.5027 199.383C98.5338 199.217 98.5279 199.047 98.4856 198.884C98.4433 198.721 98.3655 198.569 98.2578 198.439C98.1502 198.309 98.0152 198.205 97.8626 198.133C97.71 198.061 97.5434 198.024 97.3748 198.024V198.024Z" fill="white"/>
<path d="M96.9581 99.7266H64.9155C67.1557 87.6148 66.6403 72.9893 64.9155 57.2605H96.9581C95.2791 72.9893 94.7774 87.6148 96.9581 99.7266Z" fill="#E6E6E6"/>
<path d="M81.1298 85.0565C85.3941 85.0565 88.8509 81.5997 88.8509 77.3354C88.8509 73.0712 85.3941 69.6143 81.1298 69.6143C76.8656 69.6143 73.4087 73.0712 73.4087 77.3354C73.4087 81.5997 76.8656 85.0565 81.1298 85.0565Z" fill="white"/>
<path d="M67.6179 156.091H35.5753C37.8155 143.979 37.3001 129.353 35.5753 113.625H67.6179C65.9389 129.353 65.4372 143.979 67.6179 156.091Z" fill="#E6E6E6"/>
<path d="M51.7896 141.421C56.0539 141.421 59.5107 137.964 59.5107 133.699C59.5107 129.435 56.0539 125.978 51.7896 125.978C47.5254 125.978 44.0685 129.435 44.0685 133.699C44.0685 137.964 47.5254 141.421 51.7896 141.421Z" fill="white"/>
<path d="M115.103 102.429H83.0601C85.3003 90.3171 84.7849 75.6916 83.0601 59.9629H115.103C113.424 75.6917 112.922 90.3172 115.103 102.429Z" fill="#E6E6E6"/>
<path d="M99.2744 87.7589C103.539 87.7589 106.996 84.302 106.996 80.0378C106.996 75.7735 103.539 72.3167 99.2744 72.3167C95.0102 72.3167 91.5533 75.7735 91.5533 80.0378C91.5533 84.302 95.0102 87.7589 99.2744 87.7589Z" fill="white"/>
<path d="M115.103 100.499H83.0601C85.3003 88.3869 84.7849 73.7614 83.0601 58.0326H115.103C113.424 73.7614 112.922 88.3869 115.103 100.499Z" fill="#E6E6E6"/>
<path d="M99.2744 85.8286C103.539 85.8286 106.996 82.3718 106.996 78.1075C106.996 73.8433 103.539 70.3864 99.2744 70.3864C95.0102 70.3864 91.5533 73.8433 91.5533 78.1075C91.5533 82.3718 95.0102 85.8286 99.2744 85.8286Z" fill="white"/>
<path d="M115.103 102.429H83.0601C85.3003 90.3171 84.7849 75.6916 83.0601 59.9629H115.103C113.424 75.6917 112.922 90.3172 115.103 102.429Z" fill="#E6E6E6"/>
<path d="M99.2744 87.7589C103.539 87.7589 106.996 84.302 106.996 80.0378C106.996 75.7735 103.539 72.3167 99.2744 72.3167C95.0102 72.3167 91.5533 75.7735 91.5533 80.0378C91.5533 84.302 95.0102 87.7589 99.2744 87.7589Z" fill="white"/>
<path d="M122.438 97.4103H17.4307V108.992H122.438V97.4103Z" fill="#E6E6E6"/>
<path d="M122.438 154.933H17.4307V166.514H122.438V154.933Z" fill="#E6E6E6"/>
<path d="M122.438 212.455H17.4307V224.036H122.438V212.455Z" fill="#E6E6E6"/>
<path d="M305.102 259.441L278.942 240.938C287.765 232.343 295.789 220.105 303.464 206.268L329.624 224.771C319.171 236.642 310.316 248.293 305.102 259.441Z" fill="#F9A109"/>
<path d="M305.109 239.741C309.373 239.741 312.83 236.284 312.83 232.02C312.83 227.756 309.373 224.299 305.109 224.299C300.845 224.299 297.388 227.756 297.388 232.02C297.388 236.284 300.845 239.741 305.109 239.741Z" fill="white"/>
<path d="M178.907 175.007H176.035C175.934 175.007 175.837 175.048 175.766 175.119C175.695 175.19 175.654 175.287 175.654 175.388V176.649C175.654 176.699 175.664 176.748 175.683 176.794C175.703 176.84 175.731 176.882 175.766 176.918C175.801 176.953 175.843 176.981 175.889 177C175.936 177.019 175.985 177.029 176.035 177.029H176.511V178.918H178.431V177.029H178.907C179.008 177.029 179.105 176.989 179.176 176.918C179.247 176.846 179.287 176.75 179.287 176.649V175.388C179.287 175.287 179.247 175.19 179.176 175.119C179.105 175.048 179.008 175.007 178.907 175.007V175.007Z" fill="#E6E6E6"/>
<path d="M181.783 186.543C180.024 183.97 179.125 180.905 179.215 177.79C179.216 177.718 179.193 177.648 179.149 177.591C179.104 177.534 179.042 177.495 178.972 177.479V176.934H175.939V177.472H175.897C175.856 177.472 175.816 177.48 175.778 177.495C175.74 177.511 175.706 177.534 175.677 177.563C175.648 177.592 175.625 177.626 175.61 177.664C175.594 177.702 175.586 177.742 175.586 177.783C175.586 177.791 175.586 177.798 175.587 177.806C175.867 180.985 175.009 184.16 173.167 186.766C173.06 186.918 173.006 187.101 173.011 187.286L173.343 197.544C173.351 197.773 173.447 197.99 173.611 198.149C173.775 198.309 173.995 198.399 174.223 198.401H181.083C181.315 198.399 181.536 198.307 181.701 198.144C181.866 197.981 181.96 197.76 181.964 197.529L182.092 187.569C182.096 187.204 181.988 186.846 181.783 186.543V186.543Z" fill="#F9A109"/>
<path opacity="0.2" d="M178.308 175.418C178.308 175.636 178.222 175.845 178.068 175.999C177.914 176.153 177.705 176.24 177.487 176.24C177.269 176.24 177.06 176.153 176.906 175.999C176.752 175.845 176.665 175.636 176.665 175.418" fill="black"/>
<path d="M180.447 188.519H174.656V192.38H180.447V188.519Z" fill="white"/>
<path d="M269.78 215.081H264.405C264.216 215.081 264.035 215.156 263.901 215.29C263.767 215.424 263.692 215.605 263.692 215.794V218.153C263.692 218.342 263.767 218.524 263.901 218.657C264.035 218.791 264.216 218.866 264.405 218.866H265.296V222.401H268.889V218.866H269.78C269.969 218.866 270.15 218.791 270.284 218.657C270.418 218.524 270.493 218.342 270.493 218.153V215.794C270.493 215.605 270.418 215.424 270.284 215.29C270.15 215.156 269.969 215.081 269.78 215.081V215.081Z" fill="#E6E6E6"/>
<path d="M275.164 236.675C271.872 231.858 270.189 226.122 270.356 220.29C270.359 220.155 270.316 220.024 270.233 219.918C270.15 219.812 270.033 219.738 269.901 219.708V218.689H264.224V219.694H264.146C264.07 219.694 263.994 219.709 263.923 219.739C263.853 219.768 263.788 219.811 263.734 219.865C263.68 219.919 263.638 219.984 263.608 220.054C263.579 220.125 263.564 220.201 263.564 220.277C263.564 220.291 263.565 220.306 263.566 220.32C264.013 226.554 262.503 232.145 259.035 237.093C258.836 237.377 258.734 237.719 258.745 238.066L259.365 257.268C259.38 257.696 259.56 258.102 259.867 258.401C260.174 258.7 260.585 258.869 261.013 258.872H273.854C274.288 258.869 274.703 258.696 275.011 258.391C275.319 258.086 275.495 257.673 275.503 257.24L275.743 238.596C275.75 237.912 275.548 237.241 275.164 236.675V236.675Z" fill="#F9A109"/>
<path opacity="0.2" d="M268.66 215.85C268.66 216.258 268.498 216.649 268.209 216.937C267.921 217.226 267.53 217.388 267.122 217.388C266.714 217.388 266.323 217.226 266.035 216.937C265.747 216.649 265.585 216.258 265.585 215.85" fill="black"/>
<path d="M273.132 243.053H261.955C261.789 243.053 261.626 243.089 261.475 243.158C261.325 243.227 261.191 243.328 261.084 243.453C260.976 243.579 260.897 243.726 260.851 243.885C260.806 244.045 260.795 244.212 260.82 244.375L262.509 255.354H272.208L274.259 244.412C274.29 244.246 274.285 244.076 274.242 243.913C274.2 243.749 274.122 243.598 274.015 243.468C273.907 243.338 273.772 243.234 273.619 243.162C273.467 243.09 273.3 243.053 273.132 243.053V243.053Z" fill="white"/>
<path d="M254.443 259.411H222.401C224.641 247.299 224.126 232.673 222.401 216.945H254.443C252.764 232.673 252.263 247.299 254.443 259.411Z" fill="#F9A109"/>
<path d="M238.615 244.741C242.879 244.741 246.336 241.284 246.336 237.02C246.336 232.755 242.879 229.298 238.615 229.298C234.351 229.298 230.894 232.755 230.894 237.02C230.894 241.284 234.351 244.741 238.615 244.741Z" fill="white"/>
<path d="M123.381 125.764L130.575 125.11L135.152 113.993L126.978 109.416L123.381 125.764Z" fill="#FFB8B8"/>
<path d="M189.397 156.283C189.636 155.686 189.73 155.042 189.671 154.402C189.612 153.762 189.402 153.145 189.058 152.602C188.714 152.059 188.246 151.606 187.692 151.279C187.139 150.953 186.515 150.763 185.874 150.725L174.705 150.059L173.061 155.527L184.558 158.685C185.519 158.949 186.543 158.849 187.436 158.407C188.328 157.964 189.026 157.208 189.397 156.283V156.283Z" fill="#FFB8B8"/>
<path d="M177.404 158.777L177.282 148.515L152.473 144.557L133.362 122.638C132.367 121.497 130.993 120.756 129.494 120.551C127.995 120.346 126.473 120.691 125.209 121.523C124.443 122.026 123.798 122.692 123.318 123.472C122.838 124.253 122.536 125.129 122.432 126.039C122.328 126.949 122.425 127.871 122.716 128.74C123.008 129.608 123.487 130.402 124.119 131.065L139.886 150.469L177.404 158.777Z" fill="#575A89"/>
<path d="M117.823 274.208H124.362L140.582 200.873L157.386 223.528L167.195 272.573H173.408L172.1 219.931L150.193 163.693H128.613C122.716 174.365 118.089 185.367 123.381 196.716L117.823 274.208Z" fill="#2F2E41"/>
<path d="M163.186 278.662C163.114 278.894 163.092 279.138 163.121 279.378C163.151 279.619 163.231 279.851 163.357 280.058C163.483 280.265 163.651 280.443 163.852 280.58C164.052 280.717 164.278 280.809 164.517 280.852L180.519 283.691C181.151 283.807 181.804 283.687 182.354 283.355C182.905 283.023 183.314 282.5 183.506 281.887V281.887C183.692 281.301 183.666 280.667 183.432 280.098C183.198 279.529 182.771 279.061 182.226 278.776C178.708 276.969 175.68 274.337 173.401 271.103C171.643 272.741 169.677 272.587 167.59 271.38L165.376 271.657L163.186 278.662Z" fill="#2F2E41"/>
<path d="M114.795 278.662C114.723 278.894 114.701 279.138 114.73 279.378C114.759 279.619 114.84 279.851 114.966 280.058C115.091 280.265 115.26 280.443 115.46 280.58C115.66 280.717 115.887 280.809 116.126 280.852L132.128 283.691C132.76 283.807 133.413 283.687 133.963 283.355C134.513 283.023 134.923 282.5 135.114 281.887V281.887C135.301 281.301 135.275 280.667 135.041 280.098C134.807 279.529 134.38 279.061 133.835 278.776C130.316 276.969 127.288 274.337 125.01 271.103C123.251 272.741 121.286 272.587 119.198 271.38L116.984 271.657L114.795 278.662Z" fill="#2F2E41"/>
<path d="M135.316 118.08C140.372 118.08 144.471 113.981 144.471 108.925C144.471 103.869 140.372 99.7701 135.316 99.7701C130.259 99.7701 126.161 103.869 126.161 108.925C126.161 113.981 130.259 118.08 135.316 118.08Z" fill="#FFB8B8"/>
<path d="M127.141 166.145L151.01 165.491L144 143.429C148.357 136.446 143.972 129.469 137.768 122.494L132.863 119.225L125.016 118.571C121.619 122.206 119.76 127.016 119.828 131.991C119.984 142.645 121.87 154.244 127.141 166.145Z" fill="#575A89"/>
<path d="M181.981 180.995C182.435 180.54 182.776 179.985 182.973 179.373C183.171 178.761 183.22 178.112 183.117 177.477C183.015 176.843 182.762 176.242 182.382 175.724C182.001 175.206 181.503 174.786 180.928 174.499L170.922 169.493L167.259 173.873L176.587 181.299C177.367 181.92 178.348 182.232 179.342 182.176C180.337 182.119 181.276 181.699 181.981 180.995V180.995Z" fill="#FFB8B8"/>
<path d="M169.974 178.57L173.898 169.088L152.647 155.689L143.699 128.019C143.234 126.579 142.262 125.357 140.965 124.579C139.667 123.801 138.131 123.519 136.642 123.786V123.786C135.74 123.948 134.885 124.306 134.137 124.835C133.389 125.364 132.766 126.05 132.312 126.846C131.859 127.642 131.585 128.528 131.512 129.441C131.438 130.354 131.566 131.272 131.886 132.131L138.749 156.172L169.974 178.57Z" fill="#575A89"/>
<path d="M120.275 105.329C120.275 108.891 122.589 114.408 125.507 116.772C127.47 118.364 130.065 118.297 131.065 116.119C132.091 113.884 135.629 108.632 141.855 105.329C150.155 100.924 138.912 93.3897 131.065 94.5386C125.169 95.402 120.275 99.3695 120.275 105.329Z" fill="#2F2E41"/>
<path d="M125.834 100.424C129.445 100.424 132.373 97.4963 132.373 93.8847C132.373 90.2731 129.445 87.3453 125.834 87.3453C122.222 87.3453 119.294 90.2731 119.294 93.8847C119.294 97.4963 122.222 100.424 125.834 100.424Z" fill="#2F2E41"/>
<path d="M133.354 91.5959C133.353 89.9473 132.73 88.3598 131.608 87.1517C130.486 85.9435 128.949 85.204 127.305 85.0813C127.467 85.0692 127.63 85.0565 127.795 85.0565C129.53 85.0565 131.193 85.7455 132.419 86.9719C133.646 88.1982 134.335 89.8616 134.335 91.5959C134.335 93.3303 133.646 94.9936 132.419 96.2199C131.193 97.4463 129.53 98.1353 127.795 98.1353C127.63 98.1353 127.467 98.1226 127.305 98.1105C128.949 97.9878 130.486 97.2483 131.608 96.0401C132.729 94.832 133.353 93.2445 133.354 91.5959Z" fill="#2F2E41"/>
<path d="M135.479 112.195C136.292 112.195 136.951 111.317 136.951 110.233C136.951 109.15 136.292 108.271 135.479 108.271C134.667 108.271 134.008 109.15 134.008 110.233C134.008 111.317 134.667 112.195 135.479 112.195Z" fill="#FFB8B8"/>
<path d="M320.76 262.215H218.963L197.406 160.311H179.009V155.738H201.112L222.669 257.643H320.76V262.215Z" fill="#3F3D56"/>
<path d="M233.881 280.832C239.292 280.832 243.679 276.445 243.679 271.034C243.679 265.622 239.292 261.235 233.881 261.235C228.469 261.235 224.082 265.622 224.082 271.034C224.082 276.445 228.469 280.832 233.881 280.832Z" fill="#3F3D56"/>
<path d="M307.043 280.832C312.454 280.832 316.841 276.445 316.841 271.034C316.841 265.622 312.454 261.235 307.043 261.235C301.631 261.235 297.244 265.622 297.244 271.034C297.244 276.445 301.631 280.832 307.043 280.832Z" fill="#3F3D56"/>
<path d="M318.905 260.062H219.861L202.386 173.702H335.304C335.982 173.702 336.652 173.849 337.268 174.133C337.884 174.417 338.432 174.831 338.873 175.346C339.313 175.861 339.637 176.466 339.822 177.119C340.007 177.771 340.048 178.456 339.943 179.126L323.543 256.095C323.374 257.203 322.812 258.213 321.961 258.941C321.109 259.669 320.025 260.067 318.905 260.062V260.062ZM220.936 258.756H318.905C319.713 258.759 320.496 258.472 321.11 257.946C321.725 257.421 322.13 256.692 322.252 255.893L338.652 178.924C338.728 178.44 338.698 177.946 338.565 177.475C338.432 177.004 338.198 176.567 337.88 176.195C337.562 175.823 337.167 175.524 336.722 175.319C336.277 175.115 335.794 175.009 335.304 175.009H203.972L220.936 258.756Z" fill="#3F3D56"/>
<path d="M239.115 259.786L227.671 174.462L228.96 174.249L240.404 259.573L239.115 259.786Z" fill="#3F3D56"/>
<path d="M302.75 259.131L301.46 258.922L312.57 174.251L313.86 174.46L302.75 259.131Z" fill="#3F3D56"/>
<path d="M272.432 174.355H271.125V259.679H272.432V174.355Z" fill="#3F3D56"/>
<path d="M209.059 197.219L209.056 198.525L335.52 198.831L335.524 197.525L209.059 197.219Z" fill="#3F3D56"/>
<path d="M326.599 237.577L215.498 238.336L215.507 239.643L326.608 238.883L326.599 237.577Z" fill="#3F3D56"/>
<path d="M180.969 161.291C184.937 161.291 188.154 159.536 188.154 157.371C188.154 155.207 184.937 153.452 180.969 153.452C177 153.452 173.783 155.207 173.783 157.371C173.783 159.536 177 161.291 180.969 161.291Z" fill="#3F3D56"/>
</g>
<defs>
<clipPath id="clip0">
<rect width="340" height="283.735" fill="white"/>
</clipPath>
</defs>
</svg>
